<svg xmlns="http://www.w3.org/2000/svg" width="200" height="200" fill="none" viewBox="0 0 200 200"><path fill="#000" fill-rule="evenodd" d="M100 22.714c0-12.15-9.85-22-22-22H22c-12.15 0-22 9.85-22 22v56c0 12.15 9.85 22 22 22h56c12.15 0 22 9.85 22 22v54.572c0 12.15 9.85 22 22 22h56c12.15 0 22-9.85 22-22v-56c0-12.151-9.85-22-22-22h-56c-12.15 0-22-9.85-22-22V22.714ZM177.286 100c12.15 0 22-9.85 22-22V22c0-12.15-9.85-22-22-22h-56c-12.151 0-22 9.85-22 22v56c0 12.15-9.85 22-22 22H22.714c-12.15 0-22 9.85-22 22v56c0 12.15 9.85 22 22 22h56c12.15 0 22-9.85 22-22v-56c0-12.15 9.85-22 22-22h54.572Z" clip-rule="evenodd"></path></svg>