<svg xmlns="http://www.w3.org/2000/svg" width="200" height="200" viewBox="0 0 512 512" ><path fill="#000
" d="M0 0h146.478v146.705H0zm182.761 0h146.478v146.705H182.761zm256 0c-40.384 0-73.239 32.855-73.239 73.239v.228c0 40.384 32.855 73.238 73.239 73.238S512 113.851 512 73.467v-.228C512 32.855 479.145 0 438.761 0zM73.239 182.648C32.855 182.648 0 215.503 0 255.887v.228c0 40.384 32.855 73.238 73.239 73.238s73.239-32.854 73.239-73.238v-.228c0-40.384-32.855-73.239-73.239-73.239zm109.522 0h146.478v146.704H182.761zm182.761 0H512v146.704H365.522zM0 365.296h146.478V512H0zm256 0c-40.384 0-73.239 32.854-73.239 73.238v.228C182.761 479.146 215.616 512 256 512s73.239-32.854 73.239-73.238v-.228c0-40.384-32.855-73.238-73.239-73.238zm109.522 0H512V512H365.522z"></path></svg>