<svg xmlns="http://www.w3.org/2000/svg" width="200" height="200" fill="#fff" viewBox="0 0 67 42"><path d="m33.3 41.3-1.9-6.2-2.4 6.1-1.4-6.4-2.8 5.9-.9-6.5-3.3 5.6-.3-6.5-3.9 5.3.4-6.5-4.4 4.8 1.1-6.4-5 4.2 2.1-6.1L5 31.8l3.2-5.6L2 28.1l4.6-4.5-6.5-.2L6 20.8.1 18.2l6.5-.2L2 13.5l6.2 1.8L5 9.7l5.6 3.3-2.1-6.2 5 4.2-1.1-6.4 4.4 4.8-.4-6.5 3.8 5.3.4-6.5 3.3 5.6.9-6.4 2.8 5.8L29 .4l2.4 6L33.3.2l1.9 6.2 2.3-6 1.4 6.3L41.8.8l.9 6.5L46 1.7l.3 6.5 3.8-5.3-.3 6.5 4.4-4.8-1.1 6.4L58 6.8 56 13l5.6-3.3-3.2 5.6 6.2-1.9L60 18l6.4.1-5.9 2.6 5.9 2.6-6.4.2 4.6 4.5-6.2-1.8 3.2 5.6-5.6-3.3 2 6.2-4.9-4.2 1.1 6.4-4.4-4.8.3 6.5-3.8-5.3-.3 6.5-3.3-5.6-.9 6.5-2.8-5.9-1.4 6.4-2.4-6.1-1.9 6.2Z"></path></svg>