<svg xmlns="http://www.w3.org/2000/svg" width="200" height="200" fill="#000" viewBox="0 0 63 58"><path d="M17.3 24.6C29.8 27.8 12 9.2 12 9.2l11.4 9.1c5.7 4.7 4.9 2.5 4.5-3L26.4 3l4.8 12.1c1.3 3.3 3.7 3.7 5-1L41.7.8l-1.5 14.6c-.6 5 .8 3.6 5.6-.9L58.9 3.1 48 16.7c-3.2 4.4-5.5 6.7-1.3 7.1l15.1-.7-13 3.2c-7.4 2.7-2.1 4.3 4.8 7l8.7 3.9-11-2.2c-8.2-2.3-10.4-.8-4.6 5.8l10.1 11.4-11.5-8.8c-2.5-2.3-6.8-4.2-6.6-.3l1.3 14L35.7 43c-1-3.7-2.1-3.8-4 2l-3.8 11.4.8-10.3c.2-6.4-.7-6.7-4.8-3.3L12 51.9l8.8-11.3c2.7-3.2 3.8-5.5.2-5.7L6.3 37.3l10.1-4.2c3.3-1.5 7.5-2.6-.3-5.6L.6 21l16.7 3.6Z"></path></svg>